<svg width="141" height="141" viewBox="0 0 141 141" xmlns="http://www.w3.org/2000/svg"><title>Efortless employee access logo</title><g fill="none" fill-rule="evenodd"><path fill="#FFF" d="M.275.058h140v140h-140z"/><path d="M90.89 39.547H40.736c-1.505 0-2.737 1.232-2.737 2.737v29.353c0 1.505 1.232 2.737 2.737 2.737H90.89c1.505 0 2.736-1.232 2.736-2.737V42.284c0-1.505-1.23-2.737-2.737-2.737zm-38.453 25.52h-7.8l.137-.82c.342-.89.342-1.505 1.3-1.915 1.23-.548 3.215-1.095 3.9-1.71.342-.343.41-.685.41-1.096 0-.137 0-.273-.068-.41-.548-.205-.89-1.3-1.027-1.642-.206-.07-.343-.137-.41-.274-.617-1.026-.89-1.78-.275-1.847 0 0-.068-.342-.068-.958l-.342-1.027s0-.273.273-1.026c.274-.82-.068-1.437 1.095-1.3 0 0-.137-1.163 3.01-1.916 3.148-.752 2.26 1.027 3.9 1.848 0 0 .274.752-.34 1.3.546 1.505.204 3.147.204 3.147.547.07.342.822-.274 1.848-.068.137-.274.206-.41.274-.137.342-.48 1.437-1.027 1.642-.068.137-.068.274-.068.41 0 .41.068.753.41 1.095.685.684 2.67 1.23 3.9 1.71.958.41.958 1.026 1.3 1.916l.137.82c-.068-.068-7.937-.068-7.868-.068zm22.237-2.872h-9.92c-.343 0-.686-.274-.686-.684 0-.342.274-.684.685-.684h9.852c.342 0 .684.274.684.685 0 .343-.274.685-.616.685zm9.852-4.584H64.753c-.342 0-.685-.273-.685-.684 0-.342.274-.684.685-.684h19.773c.342 0 .685.274.685.684 0 .41-.342.685-.684.685zm0-4.515H64.753c-.342 0-.685-.274-.685-.684 0-.342.274-.684.685-.684h19.773c.342 0 .685.274.685.685 0 .41-.342.685-.684.685z" fill="#44C7F4"/><path d="M97.595 54.053l-2.6-.685v18.27c0 2.257-1.848 4.104-4.106 4.104H44.91L88.427 87.58c1.437.41 2.942-.48 3.353-1.917l7.73-28.258c.343-1.437-.478-2.942-1.915-3.352z" fill="#16214D"/><path d="M100.31 70.07l-2.334-1.335-4.73 17.646c-.583 2.182-2.846 3.488-5.026 2.903l-44.413-11.9 38.97 22.696c1.28.768 2.966.298 3.734-.983l14.783-25.294c.702-1.3.3-2.966-.983-3.734z" fill="#EB5424"/></g></svg>