<?xml version="1.0" encoding="UTF-8" standalone="no"?>
<svg width="141px" height="141px" viewBox="0 0 141 141" version="1.1" xmlns="http://www.w3.org/2000/svg" xmlns:xlink="http://www.w3.org/1999/xlink" xmlns:sketch="http://www.bohemiancoding.com/sketch/ns">
    <!-- Generator: Sketch 3.4.2 (15857) - http://www.bohemiancoding.com/sketch -->
    <title>Efortless employee access logo</title>
    <desc>Created with Sketch.</desc>
    <defs></defs>
    <g id="Welcome" stroke="none" stroke-width="1" fill="none" fill-rule="evenodd" sketch:type="MSPage">
        <g id="Efortless-employee-access-logo" sketch:type="MSLayerGroup">
            <rect id="Rectangle-163" fill="#FFFFFF" sketch:type="MSShapeGroup" x="0.275227009" y="0.0583409625" width="140" height="140"></rect>
            <g id="Shape-+-Shape-+-Shape" transform="translate(38.000000, 39.000000)" sketch:type="MSShapeGroup">
                <path d="M52.8894737,0.547368421 L2.73684211,0.547368421 C1.23157895,0.547368421 0,1.77894737 0,3.28421053 L0,32.6368421 C0,34.1421053 1.23157895,35.3736842 2.73684211,35.3736842 L52.8894737,35.3736842 C54.3947368,35.3736842 55.6263158,34.1421053 55.6263158,32.6368421 L55.6263158,3.28421053 C55.6263158,1.77894737 54.3947368,0.547368421 52.8894737,0.547368421 L52.8894737,0.547368421 Z M14.4368421,26.0684211 L14.4368421,26.0684211 C14.5052632,26.0684211 6.63684211,26.0684211 6.63684211,26.0684211 L6.77368421,25.2473684 C7.11578947,24.3578947 7.11578947,23.7421053 8.07368421,23.3315789 C9.30526316,22.7842105 11.2894737,22.2368421 11.9736842,21.6210526 C12.3157895,21.2789474 12.3842105,20.9368421 12.3842105,20.5263158 C12.3842105,20.3894737 12.3842105,20.2526316 12.3157895,20.1157895 C11.7684211,19.9105263 11.4263158,18.8157895 11.2894737,18.4736842 C11.0842105,18.4052632 10.9473684,18.3368421 10.8789474,18.2 C10.2631579,17.1736842 9.98947368,16.4210526 10.6052632,16.3526316 C10.6052632,16.3526316 10.5368421,16.0105263 10.5368421,15.3947368 L10.1947368,14.3684211 C10.1947368,14.3684211 10.1947368,14.0947368 10.4684211,13.3421053 C10.7421053,12.5210526 10.4,11.9052632 11.5631579,12.0421053 C11.5631579,12.0421053 11.4263158,10.8789474 14.5736842,10.1263158 C17.7210526,9.37368421 16.8315789,11.1526316 18.4736842,11.9736842 C18.4736842,11.9736842 18.7473684,12.7263158 18.1315789,13.2736842 C18.6789474,14.7789474 18.3368421,16.4210526 18.3368421,16.4210526 C18.8842105,16.4894737 18.6789474,17.2421053 18.0631579,18.2684211 C17.9947368,18.4052632 17.7894737,18.4736842 17.6526316,18.5421053 C17.5157895,18.8842105 17.1736842,19.9789474 16.6263158,20.1842105 C16.5578947,20.3210526 16.5578947,20.4578947 16.5578947,20.5947368 C16.5578947,21.0052632 16.6263158,21.3473684 16.9684211,21.6894737 C17.6526316,22.3736842 19.6368421,22.9210526 20.8684211,23.4 C21.8263158,23.8105263 21.8263158,24.4263158 22.1684211,25.3157895 L22.3052632,26.1368421 C22.2368421,26.0684211 14.3684211,26.0684211 14.4368421,26.0684211 L14.4368421,26.0684211 Z M36.6736842,23.1947368 L26.7526316,23.1947368 C26.4105263,23.1947368 26.0684211,22.9210526 26.0684211,22.5105263 C26.0684211,22.1684211 26.3421053,21.8263158 26.7526316,21.8263158 L36.6052632,21.8263158 C36.9473684,21.8263158 37.2894737,22.1 37.2894737,22.5105263 C37.2894737,22.8526316 37.0157895,23.1947368 36.6736842,23.1947368 L36.6736842,23.1947368 Z M46.5263158,18.6105263 L26.7526316,18.6105263 C26.4105263,18.6105263 26.0684211,18.3368421 26.0684211,17.9263158 C26.0684211,17.5842105 26.3421053,17.2421053 26.7526316,17.2421053 L46.5263158,17.2421053 C46.8684211,17.2421053 47.2105263,17.5157895 47.2105263,17.9263158 C47.2105263,18.3368421 46.8684211,18.6105263 46.5263158,18.6105263 L46.5263158,18.6105263 Z M46.5263158,14.0947368 L26.7526316,14.0947368 C26.4105263,14.0947368 26.0684211,13.8210526 26.0684211,13.4105263 C26.0684211,13.0684211 26.3421053,12.7263158 26.7526316,12.7263158 L46.5263158,12.7263158 C46.8684211,12.7263158 47.2105263,13 47.2105263,13.4105263 C47.2105263,13.8210526 46.8684211,14.0947368 46.5263158,14.0947368 L46.5263158,14.0947368 Z" id="Shape" fill="#44C7F4"></path>
                <path d="M59.5947368,15.0526316 L56.9947368,14.3684211 L56.9947368,32.6368421 C56.9947368,34.8947368 55.1473684,36.7421053 52.8894737,36.7421053 L6.91052632,36.7421053 L50.4263158,48.5789474 C51.8631579,48.9894737 53.3684211,48.1 53.7789474,46.6631579 L61.5105263,18.4052632 C61.8526316,16.9684211 61.0315789,15.4631579 59.5947368,15.0526316 L59.5947368,15.0526316 Z" id="Shape" fill="#16214D"></path>
                <path d="M62.3099733,31.0685265 L59.9756529,29.7347004 L55.2474376,47.3806401 C54.6630515,49.5615989 52.4004965,50.8678856 50.2195376,50.2834995 L5.80728489,38.3832722 L44.7767096,61.0794988 C46.0583405,61.8479189 47.7425258,61.378344 48.5109459,60.0967132 L63.292759,34.8027627 C63.9950894,33.5034232 63.5916042,31.8369466 62.3099733,31.0685265 L62.3099733,31.0685265 L62.3099733,31.0685265 Z" id="Shape" fill="#EB5424"></path>
            </g>
        </g>
    </g>
</svg>