<?xml version="1.0" encoding="UTF-8" standalone="no"?>
<svg width="44px" height="44px" viewBox="0 0 44 44" version="1.1" xmlns="http://www.w3.org/2000/svg" xmlns:xlink="http://www.w3.org/1999/xlink" xmlns:sketch="http://www.bohemiancoding.com/sketch/ns">
    <!-- Generator: Sketch 3.4.2 (15857) - http://www.bohemiancoding.com/sketch -->
    <title>Shape + Shape + Shape</title>
    <desc>Created with Sketch.</desc>
    <defs></defs>
    <g id="Welcome" stroke="none" stroke-width="1" fill="none" fill-rule="evenodd" sketch:type="MSPage">
        <g id="#4" sketch:type="MSArtboardGroup" transform="translate(-327.000000, -1212.000000)" fill="#3E88AB">
            <g id="Disclaimer" sketch:type="MSLayerGroup" transform="translate(296.000000, 1192.000000)">
                <g id="Shape-+-Shape-+-Shape" transform="translate(31.000000, 20.000000)" sketch:type="MSShapeGroup">
                    <path d="M22,10.4761905 C21.4217143,10.4761905 20.952381,10.9455238 20.952381,11.5238095 L20.952381,26.1904762 C20.952381,26.7687619 21.4217143,27.2380952 22,27.2380952 C22.5782857,27.2380952 23.047619,26.7687619 23.047619,26.1904762 L23.047619,11.5238095 C23.047619,10.9455238 22.5782857,10.4761905 22,10.4761905 L22,10.4761905 Z" id="Shape"></path>
                    <path d="M22,30.9047619 C21.4217143,30.9047619 20.952381,31.3740952 20.952381,31.952381 L20.952381,34.047619 C20.952381,34.6259048 21.4217143,35.0952381 22,35.0952381 C22.5782857,35.0952381 23.047619,34.6259048 23.047619,34.047619 L23.047619,31.952381 C23.047619,31.3740952 22.5782857,30.9047619 22,30.9047619 L22,30.9047619 Z" id="Shape"></path>
                    <path d="M22,0 C10.0749524,0 0,10.0744286 0,22 C0,33.9255714 10.0749524,44 22,44 C33.9250476,44 44,33.9255714 44,22 C44,10.0744286 33.9250476,0 22,0 L22,0 Z M22,41.9047619 C11.2105714,41.9047619 2.0952381,32.7894286 2.0952381,22 C2.0952381,11.2105714 11.2105714,2.0952381 22,2.0952381 C32.7894286,2.0952381 41.9047619,11.2105714 41.9047619,22 C41.9047619,32.7894286 32.7894286,41.9047619 22,41.9047619 L22,41.9047619 Z" id="Shape"></path>
                </g>
            </g>
        </g>
    </g>
</svg>