<?xml version="1.0" encoding="UTF-8" standalone="no"?>
<svg width="140px" height="140px" viewBox="0 0 140 140" version="1.1" xmlns="http://www.w3.org/2000/svg" xmlns:xlink="http://www.w3.org/1999/xlink" xmlns:sketch="http://www.bohemiancoding.com/sketch/ns">
    <!-- Generator: Sketch 3.4.2 (15857) - http://www.bohemiancoding.com/sketch -->
    <title>Simple end user logins logo</title>
    <desc>Created with Sketch.</desc>
    <defs></defs>
    <g id="Welcome" stroke="none" stroke-width="1" fill="none" fill-rule="evenodd" sketch:type="MSPage">
        <g id="Simple-end-user-logins-logo" sketch:type="MSLayerGroup">
            <rect id="Rectangle-163" fill="#FFFFFF" sketch:type="MSShapeGroup" x="0" y="0" width="140" height="140"></rect>
            <g id="Path-+-Path-+-Path" transform="translate(37.000000, 46.000000)" sketch:type="MSShapeGroup">
                <path d="M45.2953704,0.391203704 C38.4493096,0.391203704 37.066886,4.8515757 36.7884259,6.74305556 C43.1649999,8.52713975 43.0949074,14.7055556 43.0949074,14.7055556 L43.1402778,19.1972222 C43.9743667,19.1865439 44.1837963,19.9701773 44.1837963,21.5337963 C44.1837963,23.8773886 42.672192,26.3465422 41.3027778,27.6134259 C41.1247778,28.3201337 40.8955885,29.0003009 40.599537,29.6324074 C43.9272969,31.2833118 47.4727315,32.5164247 49.9458333,33.7611111 C51.8853361,34.7361828 53.6256063,37.4198925 54.6416667,40.4305556 C58.6492888,40.0479541 62.84768,39.3536052 65.6666667,38.0939815 C65.6666667,33.927502 63.3457675,28.7064824 60.5851852,27.3185185 C57.8624701,25.9483283 53.67733,24.5682872 50.1953704,22.5319444 C51.2101952,21.480019 51.9784136,20.1065591 52.3731481,18.5393519 C53.5379515,17.4618085 54.8231481,15.3832662 54.8231481,13.3898148 C54.8231481,12.0598459 54.6479459,11.3845061 53.9384259,11.3935185 L53.8930556,7.55972222 C53.8930556,7.55972222 53.9795547,0.391203704 45.2953704,0.391203704 L45.2953704,0.391203704 Z" id="Path" fill="#16214D"></path>
                <path d="M19.9106481,0.391203704 C12.0217324,0.812896978 12.1069444,7.55972222 12.1069444,7.55972222 L12.0615741,11.3935185 C11.3520548,11.3845098 11.1768519,12.0598459 11.1768519,13.3898148 C11.1768519,15.3832662 12.4620565,17.4618085 13.6268519,18.5393519 C14.0215864,20.1065591 14.7898041,21.480019 15.8046296,22.5319444 C12.3222606,24.5688708 8.13803809,25.9480778 5.41481481,27.3185185 C2.6542404,28.7064824 0.333333333,33.927502 0.333333333,38.0939815 C3.15233673,39.3536887 7.35069375,40.0480376 11.3583333,40.4305556 C12.3744264,37.4201429 14.1147968,34.7361828 16.0541667,33.7611111 C18.5277019,32.5162578 22.0719939,31.283478 25.400463,29.6324074 C25.1044115,29.0003009 24.8752301,28.3201337 24.6972222,27.6134259 C23.3278247,26.3465422 21.8162037,23.8773886 21.8162037,21.5337963 C21.8162037,19.9701773 22.0255999,19.1865409 22.8597222,19.1972222 L22.9050926,14.7055556 C22.9050926,14.7055556 22.8331896,8.52622218 29.2115741,6.74305556 C28.9324628,4.85165919 27.5507739,0.391203704 20.7046296,0.391203704 C20.4332488,0.391203704 20.1651295,0.377599852 19.9106481,0.391203704 L19.9106481,0.391203704 Z" id="Path" fill="#44C7F4"></path>
                <path d="M33,7.94537037 C24.3157982,7.94537037 24.425,15.1365741 24.425,15.1365741 L24.3569444,18.9703704 C23.6474332,18.9612818 23.4949074,19.6366811 23.4949074,20.9666667 C23.4949074,22.9601515 24.7800954,25.0386937 25.9449074,26.1162037 C26.339634,27.6834023 27.0851752,29.0569042 28.1,30.1087963 C24.6176397,32.1457401 20.4334085,33.5249471 17.7101852,34.8953704 C14.9496188,36.2833349 12.6287037,41.5043452 12.6287037,45.6708333 C18.032852,48.0855134 28.5144209,48.4384259 33,48.4384259 C37.4855696,48.4384259 47.9671313,48.0855134 53.3712963,45.6708333 C53.3712963,41.5043452 51.0504059,36.2833349 48.2898148,34.8953704 C45.5671084,33.5252055 41.3819683,32.1451143 37.9,30.1087963 C38.9148248,29.0569042 39.660366,27.6834023 40.0550926,26.1162037 C41.2199046,25.0386937 42.5050926,22.9601515 42.5050926,20.9666667 C42.5050926,19.6366811 42.3298737,18.9612832 41.6203704,18.9703704 L41.575,15.1365741 C41.575,15.1365741 41.6841923,7.94537037 33,7.94537037 L33,7.94537037 Z" id="Path" fill="#EB5424"></path>
            </g>
        </g>
    </g>
</svg>