<svg width="140" height="140" viewBox="0 0 140 140" xmlns="http://www.w3.org/2000/svg"><title>Simple end user logins logo</title><g fill="none" fill-rule="evenodd"><path fill="#FFF" d="M0 0h140v140H0z"/><path d="M82.295 46.39c-6.846 0-8.228 4.462-8.507 6.353 6.377 1.784 6.307 7.963 6.307 7.963l.045 4.49c.834-.01 1.044.774 1.044 2.338 0 2.343-1.512 4.813-2.88 6.08-.18.706-.408 1.386-.704 2.018 3.327 1.65 6.873 2.884 9.346 4.13 1.94.974 3.68 3.658 4.696 6.67 4.007-.384 8.206-1.078 11.025-2.338 0-4.166-2.32-9.388-5.082-10.775-2.723-1.372-6.908-2.752-10.39-4.788 1.015-1.052 1.783-2.425 2.178-3.993 1.165-1.078 2.45-3.157 2.45-5.15 0-1.33-.175-2.005-.885-1.996l-.045-3.834s.087-7.17-8.598-7.17z" fill="#16214D"/><path d="M56.91 46.39c-7.888.423-7.803 7.17-7.803 7.17l-.045 3.834c-.71-.01-.885.666-.885 1.996 0 1.993 1.285 4.072 2.45 5.15.395 1.567 1.163 2.94 2.178 3.992-3.483 2.037-7.667 3.416-10.39 4.787-2.76 1.386-5.082 6.608-5.082 10.774 2.82 1.26 7.018 1.954 11.025 2.337 1.016-3.01 2.757-5.694 4.696-6.67 2.474-1.244 6.018-2.477 9.346-4.128-.296-.632-.525-1.312-.703-2.02-1.37-1.265-2.88-3.735-2.88-6.078 0-1.564.21-2.347 1.043-2.337l.045-4.49s-.072-6.18 6.307-7.964c-.28-1.89-1.66-6.352-8.507-6.352-.272 0-.54-.012-.794 0z" fill="#44C7F4"/><path d="M70 53.945c-8.684 0-8.575 7.192-8.575 7.192l-.068 3.833c-.71-.01-.862.667-.862 1.997 0 1.993 1.285 4.072 2.45 5.15.395 1.566 1.14 2.94 2.155 3.992-3.482 2.036-7.667 3.415-10.39 4.785-2.76 1.388-5.08 6.61-5.08 10.776C55.032 94.087 65.513 94.44 70 94.44c4.486 0 14.967-.352 20.37-2.767 0-4.166-2.32-9.387-5.08-10.775-2.723-1.37-6.908-2.75-10.39-4.786 1.015-1.053 1.76-2.427 2.155-3.994 1.165-1.077 2.45-3.156 2.45-5.15 0-1.33-.175-2.005-.885-1.996l-.045-3.833s.11-7.192-8.575-7.192z" fill="#EB5424"/></g></svg>