<?xml version="1.0" encoding="UTF-8" standalone="no"?>
<svg width="64px" height="64px" viewBox="0 0 64 64" version="1.1" xmlns="http://www.w3.org/2000/svg" xmlns:xlink="http://www.w3.org/1999/xlink">
    <!-- Generator: Sketch 3.6.1 (26313) - http://www.bohemiancoding.com/sketch -->
    <title>04</title>
    <desc>Created with Sketch.</desc>
    <defs></defs>
    <g id="Page-1" stroke="none" stroke-width="1" fill="none" fill-rule="evenodd">
        <g id="04" transform="translate(2.000000, 2.000000)" stroke="#D0011B">
            <circle id="Oval-5" stroke-width="3" fill="#ED7D8A" cx="30" cy="30" r="30"></circle>
            <path d="M20,43.095047 C20,42.2666199 20.3246872,41.0097806 20.7769362,40.3077995 C20.7769362,40.3077995 23.1775684,35 30.0775223,35 C36.9774761,35 39.253326,40.3077995 39.253326,40.3077995 C39.6657027,41.0187267 40,42.2608442 40,43.095047 L40,43.095047 C40,43.9234741 39.3345951,44.595047 38.5082441,44.5950469 C38.5082441,44.5950469 34.0970635,44.5950468 30.0775223,44.5950468 C26.057981,44.5950468 21.4927736,44.5950469 21.4927736,44.5950469 C20.6683375,44.595047 20,43.9292498 20,43.095047 L20,43.095047 Z" id="Rectangle-11" fill="#D0011B"></path>
            <path d="M11.5,25.4683546 C11.5,25.052394 11.7886143,24.5629437 12.1692983,24.3733617 C12.1692983,24.3733617 14.4803917,23.0654398 16.5387611,23.0654398 C18.5971305,23.0654398 20.8305188,24.3653214 20.8305188,24.3653214 C21.2002631,24.5585492 21.5,25.0493896 21.5,25.4683546 L21.5,26.5183795 C21.5,26.9343401 21.2029074,27.1142818 20.8379168,26.9317102 C20.8379168,26.9317102 18.5485318,25.6314292 16.5387611,25.6314292 C14.5289905,25.6314292 12.1615039,26.9396413 12.1615039,26.9396413 C11.7961654,27.1229455 11.5,26.9373445 11.5,26.5183795 L11.5,25.4683546 Z" id="Rectangle-11" stroke-width="3" fill="#D0011B"></path>
            <path d="M38.5,25.4683546 C38.5,25.052394 38.7886143,24.5629437 39.1692983,24.3733617 C39.1692983,24.3733617 41.4803917,23.0654398 43.5387611,23.0654398 C45.5971305,23.0654398 47.8305188,24.3653214 47.8305188,24.3653214 C48.2002631,24.5585492 48.5,25.0493896 48.5,25.4683546 L48.5,26.5183795 C48.5,26.9343401 48.2029074,27.1142818 47.8379168,26.9317102 C47.8379168,26.9317102 45.5485318,25.6314292 43.5387611,25.6314292 C41.5289905,25.6314292 39.1615039,26.9396413 39.1615039,26.9396413 C38.7961654,27.1229455 38.5,26.9373445 38.5,26.5183795 L38.5,25.4683546 Z" id="Rectangle-11" stroke-width="3" fill="#D0011B"></path>
        </g>
    </g>
</svg>