<?xml version="1.0" encoding="UTF-8" standalone="no"?>
<svg width="64px" height="64px" viewBox="0 0 64 64" version="1.1" xmlns="http://www.w3.org/2000/svg" xmlns:xlink="http://www.w3.org/1999/xlink">
    <!-- Generator: Sketch 3.6.1 (26313) - http://www.bohemiancoding.com/sketch -->
    <title>05</title>
    <desc>Created with Sketch.</desc>
    <defs></defs>
    <g id="Page-1" stroke="none" stroke-width="1" fill="none" fill-rule="evenodd">
        <g id="05" transform="translate(2.000000, 2.000000)">
            <path d="M30,60 C46.5685425,60 60,46.5685425 60,30 C60,13.4314575 46.5685425,0 30,0 C13.4314575,0 0,13.4314575 0,30 C0,46.5685425 13.4314575,60 30,60 Z" id="Oval-5" stroke="#417505" stroke-width="3" fill="#9FCF68"></path>
            <path d="M14.3362243,28.8973816 C13.821196,29.1494244 13.4834153,28.9209706 13.5816821,28.3873135 L13.9949538,26.1449109 L12.2444269,24.5569306 C11.8277573,24.1789092 11.9567899,23.8094346 12.5325232,23.731574 L14.9518154,23.4043201 L16.0337605,21.3642184 C16.2912747,20.8785939 16.7087708,20.8785939 16.966285,21.3642184 L18.0481383,23.4043201 L20.4674305,23.731574 C21.0432556,23.8094346 21.1721964,24.1789092 20.7556186,24.5569306 L19.0050918,26.1449964 L19.4184552,28.387399 C19.516722,28.9210561 19.1789414,29.1494244 18.6639131,28.8974671 L16.5000228,27.8387851 L14.3362243,28.8973816 L14.3362243,28.8973816 Z" id="Shape" fill="#417505"></path>
            <path d="M41.3362243,28.8973816 C40.821196,29.1494244 40.4834153,28.9209706 40.5816821,28.3873135 L40.9949538,26.1449109 L39.2444269,24.5569306 C38.8277573,24.1789092 38.9567899,23.8094346 39.5325232,23.731574 L41.9518154,23.4043201 L43.0337605,21.3642184 C43.2912747,20.8785939 43.7087708,20.8785939 43.966285,21.3642184 L45.0481383,23.4043201 L47.4674305,23.731574 C48.0432556,23.8094346 48.1721964,24.1789092 47.7556186,24.5569306 L46.0050918,26.1449964 L46.4184552,28.387399 C46.516722,28.9210561 46.1789414,29.1494244 45.6639131,28.8974671 L43.5000228,27.8387851 L41.3362243,28.8973816 L41.3362243,28.8973816 Z" id="Shape" fill="#417505"></path>
            <path d="M20,43.6142419 C20,42.7858148 20.3246872,41.5289755 20.7769362,40.8269944 C20.7769362,40.8269944 23.1775684,35.5191949 30.0775223,35.5191949 C36.9774761,35.5191949 39.253326,40.8269944 39.253326,40.8269944 C39.6657027,41.5379216 40,42.7800392 40,43.6142419 L40,43.6142419 C40,44.4426691 39.3345951,45.1142419 38.5082441,45.1142419 C38.5082441,45.1142419 34.0970635,45.1142417 30.0775223,45.1142417 C26.057981,45.1142417 21.4927736,45.1142419 21.4927736,45.1142419 C20.6683375,45.1142419 20,44.4484447 20,43.6142419 L20,43.6142419 Z" id="Rectangle-11" stroke="#417505" fill="#417505" transform="translate(30.000000, 40.316718) rotate(-180.000000) translate(-30.000000, -40.316718) "></path>
        </g>
    </g>
</svg>